<svg width="390" height="390" viewBox="0 0 390 390" fill="none" xmlns="http://www.w3.org/2000/svg">
<path d="M174.09 12.8225C186.92 4.95491 203.08 4.95491 215.91 12.8225L246.075 31.3203C250.66 34.132 255.766 35.9901 261.085 36.7835L296.083 42.0031C310.969 44.2232 323.348 54.6109 328.12 68.8848L339.337 102.445C341.042 107.546 343.759 112.251 347.324 116.278L370.779 142.773C380.755 154.042 383.561 169.956 378.041 183.958L365.062 216.877C363.089 221.88 362.146 227.231 362.288 232.607L363.225 267.98C363.624 283.025 355.544 297.02 342.315 304.198L311.213 321.072C306.486 323.637 302.324 327.129 298.977 331.34L276.958 359.039C267.592 370.82 252.406 376.348 237.659 373.343L202.987 366.277C197.716 365.203 192.284 365.203 187.013 366.277L152.341 373.343C137.594 376.348 122.408 370.82 113.042 359.039L91.0231 331.34C87.6761 327.129 83.5145 323.637 78.7869 321.072L47.6848 304.198C34.4562 297.02 26.376 283.025 26.7746 267.98L27.7115 232.607C27.854 227.231 26.9106 221.88 24.9378 216.877L11.9592 183.958C6.43902 169.956 9.24523 154.042 19.2213 142.773L42.6761 116.278C46.2413 112.251 48.9576 107.546 50.6627 102.445L61.8804 68.8848C66.6516 54.6109 79.0312 44.2232 93.9168 42.0031L128.915 36.7835C134.234 35.9901 139.34 34.132 143.925 31.3203L174.09 12.8225Z" fill="black"/>
<path d="M260.133 103H130.093C124.46 103 120 107.453 120 113.078V242.688C120 248.547 124.46 253 130.093 253H259.898C265.531 253 269.991 248.547 269.991 242.922V113.078C270.226 107.453 265.766 103 260.133 103ZM265.531 242.922C265.531 245.969 263.184 248.312 260.133 248.312H130.093C127.042 248.312 124.695 245.969 124.695 242.922V113.078C124.695 110.031 127.042 107.688 130.093 107.688H259.898C263.184 107.688 265.531 110.031 265.531 113.078V242.922Z" fill="#FFA400"/>
<path d="M256.847 114.006C129.155 114.006 265.062 114.006 133.615 114.006C132.206 114.006 131.267 114.944 131.267 116.35V239.397C131.267 240.803 132.206 241.741 133.615 241.741H256.847C258.255 241.741 259.194 240.803 259.194 239.397V116.35C259.194 115.178 258.02 114.006 256.847 114.006ZM208.258 140.022C209.432 140.022 210.371 140.959 210.371 142.131C210.371 143.303 209.432 144.241 208.258 144.241C207.084 144.241 206.145 143.303 206.145 142.131C206.145 140.959 207.084 140.022 208.258 140.022ZM183.377 140.022C184.55 140.022 185.489 140.959 185.489 142.131C185.489 143.303 184.55 144.241 183.377 144.241C182.203 144.241 181.264 143.303 181.264 142.131C181.264 140.959 182.203 140.022 183.377 140.022ZM163.425 118.694V145.413H155.209C154.271 142.834 151.689 140.959 148.872 140.959C145.116 140.959 142.065 144.006 142.065 147.756C142.065 151.506 145.116 154.553 148.872 154.553C151.689 154.553 154.271 152.678 155.209 150.1H165.772C167.181 150.1 168.119 149.163 168.119 147.756V118.694H181.03V135.803C178.448 136.741 176.57 139.319 176.57 142.131C176.57 145.881 179.621 148.928 183.377 148.928C187.132 148.928 190.184 145.881 190.184 142.131C190.184 139.319 188.306 136.741 185.724 135.803V118.694H205.911V135.803C203.329 136.741 201.451 139.319 201.451 142.131C201.451 145.881 204.502 148.928 208.258 148.928C212.014 148.928 215.065 145.881 215.065 142.131C215.065 139.319 213.187 136.741 210.605 135.803V118.694H222.576V147.756C222.576 149.163 223.515 150.1 224.924 150.1H236.191C237.129 152.678 239.712 154.553 242.528 154.553C246.284 154.553 249.335 151.506 249.335 147.756C249.335 144.006 246.284 140.959 242.528 140.959C239.712 140.959 237.129 142.834 236.191 145.413H227.271V118.694H254.499V168.85H210.84C210.371 168.85 209.666 169.084 209.432 169.319L193.47 182.444L175.161 169.319C174.692 169.084 174.222 168.85 173.753 168.85H135.727V118.694H163.425ZM150.984 147.756C150.984 148.928 150.045 149.866 148.872 149.866C147.698 149.866 146.759 148.928 146.759 147.756C146.759 146.584 147.698 145.647 148.872 145.647C150.045 145.647 150.984 146.584 150.984 147.756ZM240.416 147.756C240.416 146.584 241.355 145.647 242.528 145.647C243.702 145.647 244.641 146.584 244.641 147.756C244.641 148.928 243.467 149.866 242.294 149.866C241.12 149.866 240.416 148.928 240.416 147.756ZM183.377 218.303C182.203 218.303 181.264 217.366 181.264 216.194C181.264 215.022 182.203 214.084 183.377 214.084C184.55 214.084 185.489 215.022 185.489 216.194C185.489 217.366 184.316 218.303 183.377 218.303ZM208.258 218.303C207.084 218.303 206.145 217.366 206.145 216.194C206.145 215.022 207.084 214.084 208.258 214.084C209.432 214.084 210.371 215.022 210.371 216.194C210.371 217.366 209.197 218.303 208.258 218.303ZM210.605 237.288V222.522C213.187 221.584 215.065 219.006 215.065 216.194C215.065 212.444 212.014 209.397 208.258 209.397C204.502 209.397 201.451 212.444 201.451 216.194C201.451 219.006 203.329 221.584 205.911 222.522V237.053H185.724V222.522C188.306 221.584 190.184 219.006 190.184 216.194C190.184 212.444 187.132 209.397 183.377 209.397C179.621 209.397 176.57 212.444 176.57 216.194C176.57 219.006 178.448 221.584 181.03 222.522V237.053H135.727V173.538H172.814L189.48 185.491L164.599 205.881H150.515C149.576 203.303 146.994 201.428 144.177 201.428C140.422 201.428 137.37 204.475 137.37 208.225C137.37 211.975 140.422 215.022 144.177 215.022C146.994 215.022 149.576 213.147 150.515 210.569H165.772C166.007 210.569 166.242 210.569 166.711 210.334H166.946C167.181 210.334 167.181 210.1 167.415 210.1L193.94 188.303L224.219 210.1C224.219 210.1 224.454 210.1 224.454 210.334H224.689C224.924 210.334 225.158 210.569 225.628 210.569H241.12C242.059 213.147 244.641 215.022 247.458 215.022C251.213 215.022 254.265 211.975 254.265 208.225C254.265 204.475 251.213 201.428 247.458 201.428C244.641 201.428 242.059 203.303 241.12 205.881H226.332L197.46 185.256L211.779 173.538H254.499V237.288H210.605ZM146.29 208.225C146.29 209.397 145.351 210.334 144.177 210.334C143.004 210.334 142.065 209.397 142.065 208.225C142.065 207.053 143.004 206.116 144.177 206.116C145.351 206.116 146.29 207.053 146.29 208.225ZM245.11 208.225C245.11 207.053 246.049 206.116 247.223 206.116C248.396 206.116 249.335 207.053 249.335 208.225C249.335 209.397 248.396 210.334 247.223 210.334C246.049 210.334 245.11 209.397 245.11 208.225Z" fill="#FFA400"/>
<path d="M101.35 304.841C101.244 305.314 101.087 305.76 100.881 306.18C100.676 306.599 100.405 306.969 100.069 307.289C99.7338 307.61 99.3258 307.861 98.8453 308.044C98.3649 308.227 97.8044 308.319 97.1638 308.319H93V291.16H97.0037C98.1628 291.16 99.1351 291.431 99.9206 291.972C100.706 292.514 101.213 293.425 101.442 294.706C101.488 294.95 101.526 295.328 101.556 295.839C101.587 296.35 101.61 296.937 101.625 297.6C101.64 298.264 101.648 298.962 101.648 299.694C101.648 300.426 101.636 301.127 101.614 301.799C101.591 302.47 101.556 303.076 101.511 303.617C101.465 304.159 101.412 304.567 101.35 304.841ZM96.7978 292.327L94.1439 292.327V307.083H97.1181C97.5299 307.083 97.8959 307.011 98.2162 306.866C98.5365 306.721 98.8225 306.53 99.0741 306.294C99.3258 306.058 99.5355 305.795 99.7033 305.505C99.871 305.215 100.008 304.933 100.115 304.658C100.191 304.46 100.256 304.102 100.31 303.583C100.363 303.064 100.401 302.473 100.424 301.81C100.447 301.146 100.458 300.441 100.458 299.694C100.458 298.946 100.447 298.245 100.424 297.589C100.401 296.933 100.367 296.354 100.321 295.85C100.275 295.347 100.222 294.996 100.161 294.798C100.069 294.523 99.9473 294.237 99.7948 293.94C99.6422 293.642 99.4402 293.376 99.1885 293.139C98.9368 292.903 98.6165 292.708 98.2276 292.556C97.8387 292.403 97.3621 292.327 96.7978 292.327ZM114.389 308.319L110.614 301.204H107.114V308.319H105.993V291.16H109.882C110.782 291.16 111.552 291.294 112.193 291.561C112.834 291.827 113.36 292.19 113.772 292.647C114.183 293.105 114.488 293.635 114.687 294.237C114.885 294.84 114.984 295.469 114.984 296.125C114.984 297.238 114.698 298.241 114.126 299.133C113.554 300.025 112.803 300.677 111.873 301.089L115.899 308.319H114.389ZM109.722 292.213L107.114 292.213V300.037H109.882C110.66 300.037 111.301 299.919 111.804 299.682C112.307 299.446 112.7 299.141 112.982 298.767C113.264 298.393 113.463 297.966 113.577 297.486C113.692 297.006 113.749 296.514 113.749 296.01C113.749 295.477 113.657 294.981 113.474 294.523C113.291 294.066 113.028 293.665 112.685 293.322C112.342 292.979 111.922 292.708 111.427 292.51C110.931 292.312 110.363 292.213 109.722 292.213ZM119.741 308.319V291.16H128.16V292.487H120.931V299.007H128.092V300.06H120.931V306.992H128.32V308.319H119.741ZM140.97 308.319L139.712 303.263H134.13L132.871 308.319H131.727L136.463 291.16H137.447L142.16 308.319H140.97ZM136.989 292.235L134.404 302.165H139.414L136.989 292.235ZM156.297 308.319V293.768L152.156 303.675L150.875 303.652L146.825 293.745V308.319H145.704V291.16H146.894L151.538 302.325L156.205 291.16H157.418V308.319H156.297ZM166.476 308.525C165.728 308.525 165.065 308.425 164.485 308.227C163.906 308.029 163.418 307.712 163.021 307.278C162.625 306.843 162.331 306.275 162.14 305.573C161.95 304.872 161.87 304.025 161.9 303.034H163.273C163.273 303.522 163.296 304.029 163.341 304.555C163.387 305.081 163.509 305.562 163.707 305.997C163.906 306.431 164.207 306.786 164.611 307.06C165.015 307.335 165.576 307.472 166.293 307.472C166.903 307.472 167.421 307.381 167.848 307.198C168.275 307.015 168.622 306.771 168.889 306.466C169.156 306.161 169.343 305.802 169.45 305.39C169.557 304.978 169.61 304.551 169.61 304.109C169.61 303.591 169.515 303.137 169.324 302.748C169.133 302.359 168.882 302.012 168.569 301.707C168.256 301.402 167.89 301.131 167.471 300.895C167.052 300.658 166.613 300.449 166.155 300.266C165.423 299.976 164.783 299.69 164.234 299.408C163.685 299.126 163.235 298.809 162.884 298.458C162.533 298.107 162.27 297.699 162.095 297.234C161.919 296.769 161.832 296.201 161.832 295.53C161.832 294.005 162.232 292.868 163.033 292.121C163.833 291.374 164.981 291 166.476 291C167.772 291 168.798 291.377 169.553 292.132C170.308 292.887 170.685 294.02 170.685 295.53V296.788H169.404V295.415C169.404 294.943 169.347 294.504 169.233 294.1C169.118 293.696 168.939 293.341 168.695 293.036C168.451 292.731 168.142 292.491 167.768 292.315C167.395 292.14 166.949 292.052 166.43 292.052C165.21 292.052 164.337 292.373 163.81 293.013C163.284 293.654 163.044 294.516 163.09 295.598C163.105 296.071 163.193 296.476 163.353 296.811C163.513 297.147 163.727 297.44 163.994 297.692C164.26 297.943 164.581 298.168 164.954 298.367C165.328 298.565 165.744 298.763 166.201 298.962C166.735 299.19 167.265 299.434 167.791 299.694C168.317 299.953 168.809 300.273 169.267 300.655C169.724 301.051 170.102 301.513 170.399 302.039C170.697 302.565 170.846 303.217 170.846 303.995C170.846 305.505 170.46 306.637 169.69 307.392C168.92 308.147 167.848 308.525 166.476 308.525ZM189.03 303.995C189.015 304.757 188.943 305.425 188.813 305.997C188.683 306.569 188.462 307.041 188.149 307.415C187.837 307.789 187.425 308.067 186.914 308.25C186.403 308.433 185.759 308.525 184.981 308.525C183.639 308.525 182.663 308.151 182.052 307.404C181.442 306.656 181.137 305.52 181.137 303.995V295.53C181.137 294.005 181.446 292.868 182.064 292.121C182.682 291.374 183.738 291 185.232 291C186.575 291 187.536 291.374 188.115 292.121C188.695 292.868 189 294.005 189.03 295.53L189.053 296.582H188.001L187.978 295.255C187.978 294.874 187.94 294.489 187.863 294.1C187.787 293.711 187.65 293.356 187.452 293.036C187.253 292.716 186.975 292.457 186.617 292.258C186.258 292.06 185.782 291.961 185.187 291.961C184.607 291.961 184.123 292.052 183.734 292.235C183.345 292.418 183.036 292.67 182.807 292.99C182.579 293.311 182.422 293.688 182.338 294.123C182.254 294.558 182.213 295.027 182.213 295.53L182.258 304.109C182.258 305.162 182.453 305.985 182.842 306.58C183.231 307.175 183.944 307.472 184.981 307.472C185.576 307.472 186.067 307.392 186.456 307.232C186.845 307.072 187.15 306.847 187.372 306.557C187.593 306.267 187.749 305.917 187.841 305.505C187.932 305.093 187.978 304.643 187.978 304.155L188.001 302.668H189.053L189.03 303.995ZM198.02 308.525C195.137 308.525 193.696 307.015 193.696 303.995V295.53C193.696 294.005 194.058 292.868 194.782 292.121C195.507 291.374 196.677 291 198.294 291C199.773 291 200.868 291.378 201.577 292.133C202.286 292.887 202.641 294.005 202.641 295.484V303.995C202.641 304.757 202.561 305.421 202.401 305.985C202.241 306.549 201.977 307.022 201.611 307.404C201.245 307.785 200.769 308.067 200.182 308.25C199.594 308.433 198.874 308.525 198.02 308.525ZM201.428 295.461C201.428 295.08 201.375 294.691 201.268 294.294C201.161 293.898 200.986 293.536 200.742 293.208C200.498 292.88 200.174 292.613 199.77 292.407C199.366 292.201 198.866 292.098 198.271 292.098C197.615 292.098 197.07 292.19 196.635 292.373C196.201 292.556 195.858 292.811 195.606 293.139C195.354 293.467 195.175 293.852 195.068 294.295C194.961 294.737 194.908 295.217 194.908 295.736V303.858C194.908 304.254 194.954 304.658 195.045 305.07C195.137 305.482 195.301 305.859 195.537 306.203C195.774 306.546 196.094 306.828 196.498 307.049C196.902 307.27 197.409 307.381 198.02 307.381C198.675 307.381 199.221 307.293 199.655 307.118C200.09 306.942 200.437 306.702 200.696 306.397C200.956 306.092 201.142 305.73 201.257 305.31C201.371 304.891 201.428 304.437 201.428 303.949L201.428 295.461ZM215.131 304.841C215.024 305.314 214.868 305.76 214.662 306.18C214.456 306.599 214.185 306.969 213.849 307.289C213.514 307.61 213.106 307.861 212.625 308.044C212.145 308.227 211.585 308.319 210.944 308.319H206.78V291.16H210.784C211.943 291.16 212.915 291.431 213.701 291.972C214.486 292.514 214.993 293.425 215.222 294.706C215.268 294.95 215.306 295.328 215.337 295.839C215.367 296.35 215.39 296.937 215.405 297.6C215.42 298.264 215.428 298.962 215.428 299.694C215.428 300.426 215.417 301.127 215.394 301.799C215.371 302.47 215.337 303.076 215.291 303.617C215.245 304.159 215.192 304.567 215.131 304.841ZM210.578 292.327L207.924 292.327V307.083H210.898C211.31 307.083 211.676 307.011 211.996 306.866C212.317 306.721 212.603 306.53 212.854 306.294C213.106 306.058 213.316 305.795 213.483 305.505C213.651 305.215 213.788 304.933 213.895 304.658C213.971 304.46 214.036 304.102 214.09 303.583C214.143 303.064 214.181 302.473 214.204 301.81C214.227 301.146 214.238 300.441 214.238 299.694C214.238 298.946 214.227 298.245 214.204 297.589C214.181 296.933 214.147 296.354 214.101 295.85C214.055 295.347 214.002 294.996 213.941 294.798C213.849 294.523 213.727 294.237 213.575 293.94C213.422 293.642 213.22 293.376 212.969 293.139C212.717 292.903 212.397 292.708 212.008 292.556C211.619 292.403 211.142 292.327 210.578 292.327ZM219.544 308.319V291.16H227.964V292.487H220.734V299.007H227.895V300.06H220.734V306.992H228.124V308.319H219.544ZM240.202 304.841C240.095 305.314 239.938 305.76 239.733 306.18C239.527 306.599 239.256 306.969 238.92 307.289C238.585 307.61 238.177 307.861 237.696 308.044C237.216 308.227 236.655 308.319 236.015 308.319H231.851V291.16H235.855C237.014 291.16 237.986 291.431 238.772 291.972C239.557 292.514 240.064 293.425 240.293 294.706C240.339 294.95 240.377 295.328 240.407 295.839C240.438 296.35 240.461 296.937 240.476 297.6C240.491 298.264 240.499 298.962 240.499 299.694C240.499 300.426 240.488 301.127 240.465 301.799C240.442 302.47 240.407 303.076 240.362 303.617C240.316 304.159 240.263 304.567 240.202 304.841ZM235.649 292.327L232.995 292.327V307.083H235.969C236.381 307.083 236.747 307.011 237.067 306.866C237.388 306.721 237.674 306.53 237.925 306.294C238.177 306.058 238.387 305.795 238.554 305.505C238.722 305.215 238.859 304.933 238.966 304.658C239.042 304.46 239.107 304.102 239.161 303.583C239.214 303.064 239.252 302.473 239.275 301.81C239.298 301.146 239.309 300.441 239.309 299.694C239.309 298.946 239.298 298.245 239.275 297.589C239.252 296.933 239.218 296.354 239.172 295.85C239.126 295.347 239.073 294.996 239.012 294.798C238.92 294.523 238.798 294.237 238.646 293.94C238.493 293.642 238.291 293.376 238.04 293.139C237.788 292.903 237.468 292.708 237.079 292.556C236.69 292.403 236.213 292.327 235.649 292.327ZM259.416 308.319L255.641 301.204H252.14V308.319H251.019V291.16H254.909C255.809 291.16 256.579 291.294 257.219 291.561C257.86 291.827 258.386 292.19 258.798 292.647C259.21 293.105 259.515 293.635 259.713 294.237C259.911 294.84 260.011 295.469 260.011 296.125C260.011 297.238 259.725 298.241 259.153 299.133C258.581 300.025 257.829 300.677 256.899 301.089L260.926 308.319H259.416ZM254.749 292.213L252.14 292.213V300.037H254.909C255.687 300.037 256.327 299.919 256.831 299.682C257.334 299.446 257.727 299.141 258.009 298.767C258.291 298.393 258.489 297.966 258.604 297.486C258.718 297.006 258.775 296.514 258.775 296.01C258.775 295.477 258.684 294.981 258.501 294.523C258.318 294.066 258.054 293.665 257.711 293.322C257.368 292.979 256.949 292.708 256.453 292.51C255.957 292.312 255.389 292.213 254.749 292.213ZM264.767 308.319V291.16H273.187V292.487H265.957V299.007H273.118V300.06H265.957V306.992H273.347V308.319H264.767ZM285.997 308.319L284.738 303.263H279.156L277.898 308.319H276.754L281.49 291.16H282.473L287.186 308.319H285.997ZM282.016 292.235L279.431 302.165H284.441L282.016 292.235ZM290.731 308.319V291.16H291.966V307.083H297.8V308.319H290.731Z" fill="#FFA400"/>
</svg>
